<svg width="313" height="87" viewBox="0 0 313 87" fill="none" xmlns="http://www.w3.org/2000/svg">
<path d="M119.077 65.5734V40.2388C119.077 37.4238 119.134 34.0918 119.303 30.3002H119.021L111.395 65.5734H105.746L98.1202 30.3002H97.8378C97.9507 34.0918 98.0637 37.4238 98.0637 40.2388V65.5734H92.6409V19.7872H101.848L108.514 53.3944H108.796L115.462 19.7872H124.5V65.6309H119.077V65.5734Z" fill="black"/>
<path d="M143.141 65.5734L142.915 61.3797H142.633C141.221 63.9075 139.187 65.9756 134.894 65.9756C129.81 65.9756 127.776 63.1032 127.776 58.5648V55.2328C127.776 49.4305 130.092 47.4198 136.476 45.5815C139.469 44.6623 142.633 44.1453 142.633 41.9048V40.526C142.633 38.2281 141.277 37.1366 138.453 37.1366C135.402 37.1366 133.821 38.4004 133.821 40.8707V43.1112H128.341V40.2388C128.341 34.7237 132.182 32.0237 138.792 32.0237C145.175 32.0237 148.507 34.494 148.507 39.7792V65.5734H143.141ZM142.746 47.3624C141.39 48.3964 140.599 48.4539 138.057 49.2007C134.272 50.3497 133.595 51.671 133.595 54.2561V57.2435C133.595 59.6563 134.95 60.7478 137.436 60.7478C140.147 60.7478 141.729 59.4265 142.746 56.8413V47.3624Z" fill="black"/>
<path d="M167.318 65.5734V41.9622C167.318 38.7451 165.849 37.2515 163.138 37.2515C160.426 37.2515 159.297 38.6302 158.28 42.0771V65.516H152.462V32.4833H157.885L158.11 37.2515H158.393C159.805 33.6897 162.065 32.0811 165.51 32.0811C170.142 32.0811 173.306 35.1833 173.306 40.9281V65.6309H167.318V65.5734Z" fill="black"/>
<path d="M187.371 81.659C180.423 81.659 177.316 78.2121 177.316 71.3183V67.6416H182.852V71.3183C182.852 74.6503 184.321 76.2588 187.315 76.2588C190.365 76.2588 191.834 74.5928 191.834 71.3183V61.035H191.551C190.422 64.0798 188.106 65.5734 184.603 65.5734C179.181 65.5734 176.978 61.8968 176.978 54.9455V40.8707C176.978 35.6429 179.463 32.0237 184.66 32.0237C187.993 32.0237 190.309 33.5173 191.947 37.194H192.229L192.455 32.4258H197.652V71.2608C197.765 78.2121 194.319 81.659 187.371 81.659ZM183.022 53.854C183.022 58.1052 184.095 60.1159 187.032 60.1159C189.518 60.1159 190.874 58.6797 192.116 55.2902V42.5367C191.438 38.86 190.478 37.3089 187.371 37.3089C184.547 37.3089 183.022 38.6302 183.022 42.2495V53.854Z" fill="black"/>
<path d="M222.055 55.6349C222.055 62.7585 218.779 65.9756 211.887 65.9756C204.939 65.9756 201.719 62.7585 201.719 55.6349V42.4218C201.719 35.2982 204.996 32.0811 211.887 32.0811C218.835 32.0811 222.055 35.2982 222.055 42.4218V55.6349ZM216.35 42.4218C216.35 39.0324 214.881 37.4812 211.887 37.4812C208.893 37.4812 207.425 39.0898 207.425 42.4218V55.6923C207.425 59.0818 208.893 60.6329 211.887 60.6329C214.881 60.6329 216.35 59.0243 216.35 55.6923V42.4218Z" fill="black"/>
<path d="M225.84 65.5734V19.7872H231.94V59.9435H243.068V65.6309H225.84V65.5734Z" fill="black"/>
<path d="M260.071 65.5734L259.845 61.3797H259.563C258.151 63.9075 256.117 65.9756 251.824 65.9756C246.74 65.9756 244.707 63.1032 244.707 58.5648V55.2328C244.707 49.4305 247.023 47.4198 253.406 45.5815C256.4 44.6623 259.563 44.1453 259.563 41.9048V40.526C259.563 38.2281 258.207 37.1366 255.383 37.1366C252.332 37.1366 250.751 38.4004 250.751 40.8707V43.1112H245.271V40.2388C245.271 34.7237 249.113 32.0237 255.722 32.0237C262.105 32.0237 265.438 34.494 265.438 39.7792V65.5734H260.071ZM259.676 47.3624C258.32 48.3964 257.529 48.4539 254.987 49.2007C251.203 50.3497 250.525 51.671 250.525 54.2561V57.2435C250.525 59.6563 251.881 60.7478 254.366 60.7478C257.077 60.7478 258.659 59.4265 259.676 56.8413V47.3624Z" fill="black"/>
<path d="M283.514 46.673H288.541V55.6349C288.541 62.5861 286.282 65.9756 279.447 65.9756C272.442 65.9756 269.279 62.5861 269.279 55.6349V23.2915H275.041V32.4833H288.541V37.7685H275.041V55.6349C275.041 59.0243 276.453 60.5754 279.503 60.5754C282.44 60.5754 283.514 58.9669 283.514 55.6349V46.673Z" fill="black"/>
<path d="M313.001 55.6349C313.001 62.5287 309.668 65.9756 302.663 65.9756C295.828 65.9756 292.552 62.6436 292.552 55.6349V42.4218C292.552 35.4706 295.828 32.0811 302.72 32.0811C309.668 32.0811 312.944 35.4706 312.944 42.4218V50.6369H298.257V55.8072C298.257 59.1392 299.726 60.7478 302.663 60.7478C305.714 60.7478 307.182 59.0818 307.182 55.8072V54.1412H312.944V55.6349H313.001ZM307.239 42.2495C307.239 38.9175 305.827 37.3089 302.776 37.3089C299.782 37.3089 298.314 38.9749 298.314 42.2495V46.1559H307.295V42.2495H307.239Z" fill="black"/>
<path d="M71.8533 7.09114C71.9098 4.16128 55.2458 -0.377128 35.5315 0.0250094C16.3256 0.484595 -0.112397 5.59749 0.000578924 9.04438C0.0570669 11.2274 6.55319 11.17 8.41729 15.9956C10.3944 21.0511 4.91503 26.3363 6.44021 27.6576C7.9089 28.864 12.4844 23.9235 20.9011 21.0511C30.843 17.6616 41.2368 18.8106 41.2368 18.868C41.2368 18.9255 37.4521 18.6957 32.0293 19.7872C31.0125 20.017 27.3973 20.7638 23.782 22.2575C15.4218 25.7044 9.20812 32.0811 9.71651 32.7705C10.2249 33.4024 15.5348 28.347 25.5896 25.4746C36.3788 22.3724 46.3207 23.5213 48.9192 23.9235C59.0305 25.3597 64.6228 28.9215 66.3175 26.8533C68.3511 24.3831 61.0641 18.351 63.4366 13.0083C65.3572 8.64224 71.7968 8.92949 71.8533 7.09114ZM60.5557 20.8213C57.1664 18.9829 51.7436 16.4552 44.6826 15.1339C39.9376 14.2147 31.8598 12.836 22.5393 15.8807C17.3424 17.6042 13.5012 20.0744 11.1287 21.9702C11.5241 21.3383 12.9363 18.6957 12.202 15.3637C11.3547 11.5147 8.19134 9.61886 7.62646 9.27417C14.0661 7.14859 22.9912 4.96556 33.8934 4.44852C45.6429 3.93149 55.4718 5.54004 62.3068 7.14859C61.629 7.83797 59.4824 10.021 59.0305 13.5253C58.4657 17.2595 60.0473 20.017 60.5557 20.8213Z" fill="black"/>
<path d="M69.6503 39.2047C69.7068 39.2047 70.0457 39.0324 70.8365 38.7451C72.1923 38.2281 73.1525 37.9408 73.435 37.8259C76.4853 36.6195 78.293 35.9302 78.4059 34.7237C78.5189 33.7471 77.5586 32.7705 76.7113 32.2535C74.3953 30.8747 72.0228 32.5982 68.464 32.9428C64.9618 33.2875 62.7023 32.0237 60.1603 31.3917C52.3085 29.4385 35.0232 24.9575 20.2798 32.4258C13.6142 35.7578 9.49057 40.526 6.83564 43.5708C5.81885 44.8346 -0.0559 52.5327 2.09064 59.4839C4.85856 68.4459 18.9806 69.7672 22.8782 70.1693C26.3805 70.514 29.3179 70.2267 31.3514 69.9395C29.6568 70.3416 27.1713 70.9161 24.121 71.0885C19.6019 71.3757 17.06 70.7438 16.3256 72.2374C15.9867 72.9268 16.3256 73.5013 17.5684 77.9823C18.4157 80.9121 18.5287 81.544 18.6416 81.9462C20.3363 86.7718 35.814 86.0825 39.5422 85.8527C44.6261 85.8527 49.1451 85.4505 52.365 82.693C52.8169 82.3483 53.0428 81.9462 54.2856 77.2354C56.8275 67.7565 58.0703 62.9883 56.8275 62.1265C55.8672 61.4372 54.2856 62.9308 51.1222 64.6543C46.4337 67.1245 42.1406 67.9288 39.1468 68.1586C40.446 67.8714 42.4231 67.2969 44.6826 66.3203C47.7329 64.999 54.7939 61.4372 60.2733 53.3944C61.2336 52.0157 62.4198 50.005 63.6061 47.4198C64.9053 51.039 65.9786 55.8647 63.6626 58.6222C62.1939 60.4031 59.9908 60.4605 59.9908 61.4946C59.9908 63.0457 65.0183 65.516 69.0289 64.0223C72.0228 62.9308 74.1128 59.7712 74.6212 56.7264C76.1464 48.9709 68.0121 40.5835 69.6503 39.2047ZM13.5577 65.2862C13.6142 64.8266 18.3592 65.516 26.6064 65.1139C35.3621 64.7117 39.7681 63.5628 39.8246 63.9649C39.9376 64.4819 32.8201 67.4118 24.2339 67.2969C18.5287 67.182 13.5012 65.7458 13.5577 65.2862ZM22.3133 80.3951C20.9011 78.7865 20.4492 76.7758 20.2798 75.3396C24.0645 75.4545 28.527 75.2822 33.498 74.4779C41.2933 73.2141 47.6765 70.8012 52.4215 68.5033C52.5344 70.2842 52.8169 76.4886 49.0887 80.1653C47.1681 82.0611 43.6093 82.2909 36.5483 82.7505C25.4767 83.3249 23.3301 81.6015 22.3133 80.3951ZM36.3224 61.1499C28.4705 62.3563 20.4492 63.4479 12.8234 62.1265C10.2814 61.667 8.47379 61.5521 7.23105 60.3456C7.23105 60.3456 6.27076 59.3116 5.87534 57.8179C4.6326 53.3944 10.4509 45.7538 16.4951 40.9856C23.1607 35.7004 30.1652 33.862 34.6277 33.2301C44.5131 31.7939 52.4779 34.7237 56.4886 36.5621C53.2688 38.4004 50.5009 37.9983 49.8795 42.3069C57.11 42.6516 58.8046 44.1452 59.1435 45.4091C60.2168 49.5454 47.7894 59.369 36.3224 61.1499ZM66.261 45.3517C66.5435 45.1793 67.0518 45.524 67.2778 45.6964C69.3679 47.19 72.5312 52.1306 70.893 57.0711C69.5938 60.8627 66.0351 63.1032 65.6396 62.7585C65.4137 62.5287 66.4305 61.4372 67.2213 59.0818C68.2946 55.7498 67.8992 52.5327 67.6732 51.1539C67.0518 47.9368 65.6961 45.6964 66.261 45.3517Z" fill="black"/>
</svg>
