<svg width="46" height="46" viewBox="0 0 46 46" fill="none" xmlns="http://www.w3.org/2000/svg">
<g clip-path="url(#clip0_203_219)">
<path d="M41 23.3C41 28.4 38.9 33.1 35.4 36.3C32.2 39.4 27.8 41.3 23 41.3C18.4 41.3 14.1 39.5 11 36.7C7.3 33.4 5 28.7 5 23.3C5 13.3 13.1 5.3 23 5.3C32.9 5.3 41 13.3 41 23.3Z" fill="white"/>
<path d="M23 6C13.6 6 6 13.6 6 23C6 32.4 13.6 40 23 40C32.4 40 40 32.4 40 23C40 13.6 32.4 6 23 6ZM4 23C4 12.5 12.5 4 23 4C33.5 4 42 12.5 42 23C42 33.5 33.5 42 23 42C12.5 42 4 33.5 4 23Z" fill="#777777"/>
<path d="M23 26C26.866 26 30 22.866 30 19C30 15.134 26.866 12 23 12C19.134 12 16 15.134 16 19C16 22.866 19.134 26 23 26Z" fill="#777777"/>
<path d="M36 36.5C33.4 32 28.6 29 23 29C17.4 29 12.6 32 10 36.5L11.7 37.5L11.8 37.4C14.9 39.8 18.7 41.3 23 41.3C27.2 41.3 31.1 39.8 34.2 37.4L34.3 37.5L36 36.5Z" fill="#777777"/>
</g>
<defs>
<clipPath id="clip0_203_219">
<rect width="38" height="38" fill="white" transform="translate(4 4)"/>
</clipPath>
</defs>
</svg>
