<svg width="20" height="20" viewBox="0 0 20 20" fill="none" xmlns="http://www.w3.org/2000/svg">
<path fill-rule="evenodd" clip-rule="evenodd" d="M0.833374 3.33333C0.833374 2.8731 1.20647 2.5 1.66671 2.5H16.6667C17.1269 2.5 17.5 2.8731 17.5 3.33333V7.91667H15.8334V4.16667H2.50004V15.8333H7.50004V17.5H1.66671C1.20647 17.5 0.833374 17.1269 0.833374 16.6667V3.33333Z" fill="#777777"/>
<path fill-rule="evenodd" clip-rule="evenodd" d="M14.1667 10.8333C12.3258 10.8333 10.8334 12.3257 10.8334 14.1667C10.8334 16.0076 12.3258 17.5 14.1667 17.5C16.0077 17.5 17.5001 16.0076 17.5001 14.1667C17.5001 12.3257 16.0077 10.8333 14.1667 10.8333ZM9.16675 14.1667C9.16675 11.4052 11.4053 9.16666 14.1667 9.16666C16.9282 9.16666 19.1667 11.4052 19.1667 14.1667C19.1667 16.9281 16.9282 19.1667 14.1667 19.1667C11.4053 19.1667 9.16675 16.9281 9.16675 14.1667Z" fill="#777777"/>
<path fill-rule="evenodd" clip-rule="evenodd" d="M12.9167 14.5833V12.0833H14.5834V13.75H16.2501V15.4167H13.7501C13.2898 15.4167 12.9167 15.0436 12.9167 14.5833Z" fill="#777777"/>
<path fill-rule="evenodd" clip-rule="evenodd" d="M1.66675 5.83334H16.6667V7.5H1.66675V5.83334Z" fill="#777777"/>
<path fill-rule="evenodd" clip-rule="evenodd" d="M4.16675 4.58333V1.66666H5.83341V4.58333H4.16675Z" fill="#777777"/>
<path fill-rule="evenodd" clip-rule="evenodd" d="M12.5 4.58333V1.66666H14.1667V4.58333H12.5Z" fill="#777777"/>
</svg>
