<svg width="19" height="17" viewBox="0 0 19 17" fill="none" xmlns="http://www.w3.org/2000/svg">
<path fill-rule="evenodd" clip-rule="evenodd" d="M15.443 2.86398C13.8753 1.34342 11.3676 1.26996 9.71035 2.65021C9.55245 2.78171 9.35898 2.84556 9.16666 2.84314C8.97434 2.84556 8.78086 2.78171 8.62296 2.65021C6.9657 1.26996 4.45798 1.34342 2.89037 2.86398C1.33458 4.37308 1.26343 6.7648 2.67028 8.35413C2.69094 8.37748 2.71007 8.40168 2.72766 8.4266L9.16666 14.6724L15.6057 8.42659C15.6233 8.40167 15.6424 8.37748 15.663 8.35413C17.0699 6.7648 16.9987 4.37308 15.443 2.86398ZM17.0193 9.33293C18.9014 7.07984 18.7607 3.76024 16.6034 1.66766C14.5771 -0.297834 11.4486 -0.524949 9.16666 0.981069C6.88475 -0.524948 3.75625 -0.297834 1.72994 1.66766C-0.427379 3.76024 -0.568107 7.07984 1.31404 9.33293C1.35226 9.3992 1.39976 9.46047 1.45568 9.51471L8.58645 16.4315C8.90971 16.745 9.42361 16.745 9.74687 16.4315L16.8776 9.51471C16.9336 9.46047 16.9811 9.3992 17.0193 9.33293Z" fill="#777777"/>
<path fill-rule="evenodd" clip-rule="evenodd" d="M14.1667 5.83333C14.1667 4.91286 13.4205 4.16667 12.5 4.16667V2.5C14.3409 2.5 15.8333 3.99238 15.8333 5.83333H14.1667Z" fill="#777777"/>
</svg>
