<svg width="20" height="20" viewBox="0 0 20 20" fill="none" xmlns="http://www.w3.org/2000/svg">
<path fill-rule="evenodd" clip-rule="evenodd" d="M0.833374 2.08333C0.833374 1.6231 1.20647 1.25 1.66671 1.25H8.75004C9.21028 1.25 9.58337 1.6231 9.58337 2.08333V8.75C9.58337 9.21024 9.21028 9.58333 8.75004 9.58333H1.66671C1.20647 9.58333 0.833374 9.21024 0.833374 8.75V2.08333ZM2.50004 2.91667V7.91667H7.91671V2.91667H2.50004Z" fill="#1A1A1A"/>
<path fill-rule="evenodd" clip-rule="evenodd" d="M0.833374 11.25C0.833374 10.7898 1.20647 10.4167 1.66671 10.4167H8.75004C9.21028 10.4167 9.58337 10.7898 9.58337 11.25V17.9167C9.58337 18.3769 9.21028 18.75 8.75004 18.75H1.66671C1.20647 18.75 0.833374 18.3769 0.833374 17.9167V11.25ZM2.50004 12.0833V17.0833H7.91671V12.0833H2.50004Z" fill="#1A1A1A"/>
<path fill-rule="evenodd" clip-rule="evenodd" d="M10.4166 2.08333C10.4166 1.6231 10.7897 1.25 11.25 1.25H18.3333C18.7935 1.25 19.1666 1.6231 19.1666 2.08333V8.75C19.1666 9.21024 18.7935 9.58333 18.3333 9.58333H11.25C10.7897 9.58333 10.4166 9.21024 10.4166 8.75V2.08333ZM12.0833 2.91667V7.91667H17.5V2.91667H12.0833Z" fill="#1A1A1A"/>
<path fill-rule="evenodd" clip-rule="evenodd" d="M10.4166 11.25C10.4166 10.7898 10.7897 10.4167 11.25 10.4167H18.3333C18.7935 10.4167 19.1666 10.7898 19.1666 11.25V17.9167C19.1666 18.3769 18.7935 18.75 18.3333 18.75H11.25C10.7897 18.75 10.4166 18.3769 10.4166 17.9167V11.25ZM12.0833 12.0833V17.0833H17.5V12.0833H12.0833Z" fill="#1A1A1A"/>
</svg>
