<svg width="18" height="17" viewBox="0 0 18 17" fill="none" xmlns="http://www.w3.org/2000/svg">
<path fill-rule="evenodd" clip-rule="evenodd" d="M9.81591 2.35985C9.4499 1.73765 8.5501 1.73765 8.18409 2.35985L2.0282 12.8249C1.657 13.4559 2.11199 14.2514 2.84411 14.2514H15.1559C15.888 14.2514 16.343 13.4559 15.9718 12.8249L9.81591 2.35985ZM6.55228 1.39996C7.65029 -0.466654 10.3497 -0.466655 11.4477 1.39996L17.6036 11.865C18.7172 13.7581 17.3522 16.1446 15.1559 16.1446H2.84411C0.647762 16.1446 -0.717202 13.7581 0.396388 11.865L6.55228 1.39996Z" fill="#777777"/>
<path fill-rule="evenodd" clip-rule="evenodd" d="M8.05359 9.51842V3.83882H9.94679V9.51842H8.05359Z" fill="#777777"/>
<path fill-rule="evenodd" clip-rule="evenodd" d="M8.05359 12.8315V11.4116H9.94679V12.8315H8.05359Z" fill="#777777"/>
</svg>
